<mxfile host="app.diagrams.net" agent="Mozilla/5.0 (Windows NT 10.0; Win64; x64) AppleWebKit/537.36 (KHTML, like Gecko) Chrome/133.0.0.0 Safari/537.36" version="26.0.15">
  <diagram name="Page-1" id="1dDSNDJPYz6RL1X6b6g7">
    <mxGraphModel dx="1120" dy="426" grid="1" gridSize="10" guides="1" tooltips="1" connect="1" arrows="1" fold="1" page="1" pageScale="1" pageWidth="850" pageHeight="1100" math="0" shadow="0">
      <root>
        <mxCell id="0" />
        <mxCell id="1" parent="0" />
        <mxCell id="zzfh5fChmuyt2j8enl0e-8" value="" style="shape=image;verticalLabelPosition=bottom;labelBackgroundColor=default;verticalAlign=top;aspect=fixed;imageAspect=0;image=data:image/png,iVBORw0KGgoAAAANSUhEUgAAATsAAAR0CAMAAAA5NEHrAAAAIGNIUk0AAHomAACAhAAA+gAAAIDoAAB1MAAA6mAAADqYAAAXcJy6UTwAAACfUExURf///+Tk5cDBw6OlqHN1ek5SVygsM+3t7rO0t/X19pSWms3Ozzw/RoSHi2FkadnZ2/v7+zMzM7e3t3p6es/Pz0ZGRuXl5fb29qysrGBgYEBAQMPDw5WVldvb219fXzY2Nu7u7lFRUaampk9PT4eHh0FBQZiYmERERJqamtzc3aioqIuLi35+fpeXl4ODg2JiYjQ0NGdnZ4mJidLS02RkZHV7UiIAAAABYktHRACIBR1IAAAACXBIWXMAABibAAAYmwFJdYOUAAAAB3RJTUUH6QIUBzov0xOG5wAAH0hJREFUeNrtnQub4sh1hhGSSqUbFOP2TuLxetb22kmcZGwn+f+/LVW6Ad1cxBFwvqK/93l2tru5fXpR3Y6EWK0IIYQQQgghhBBCCCGEEEIIIYQQQgghhBBCCCGEEEJuJFmnWW4eRJ6l60R7Cx9DYbNHWTsks4X2lt6Zcp3v940HMe3T+brU3t77kXR7XF7VD9+msq46f9mLNN7OXFM9bWuSqnkRe2Ubdrn6uS9ah52vjb3l2ub55gLBXmO1t34J5UZvC8K7tol319s2mi0n9BbNVtuBEOuzKzTXPbV/7+Jst5VvM8rz1ML3GZW2BwFBndMO4aKUV4GERskRZWScJDOxQIGruAaMre/rtDPs8X1ePFOVsgEYJvb4AaOJZpLss0IV0YoGqRlcxHd2qlPij9SxdHm+xbbaGd7TRtJqEXMivp8nSCDbh+9HIiiGZibXjnCK3GTaEa6SwA0UPXUEOx7obhfDjleC7nbdjgc3hB2zNo12hHM0Zq0d4TI5Tg3gPRVqbzJQAPfIfhSDWim+xyK/tznixHNPdluT9TPWabq/Nt1AuN9x/X7SPePxBrtm3+ffuJNX2CPtjaOsdzeJ2Mxz54fL6S83uqu7J0QluXEeENwNg19h5rnbmP0M8kZ3JXBnHNrdbd2dNe1YWUv9jzPcecW+1Q5l4Ftd5MizlPTGHsUauxkGv8bUc9xVvoNMx07yVneZSbUN3S+cd7fuH7I1m2SGO7/P1WHf63uGW93d+tY+lVsbhXfn+mbemvUcd/2yZTP87VZ3t3YpT+XWjfHuvLVt1427Oe7ybi8dHdz6cgnyQCtxV4cp4dp3YTPcDeO4Gw4afnp3fpRwvhVuJ3djs19/dFf5eUxgqKC/kjsncleZugzdWO8un1Yam65lHrpzB58FKGXunLaj+7orTNYNtr27bNy+sl+vHbrzI8Ww7f3S9JXcydqsF5GH3ah351tqGjawrPrWe+huX+BKu33yldqs0N26P3tl3bkLZ8w11dab61ccmamGz56U230RqexGC7ob6/S2n7mGczX7TzcVvbsR2x6cGZGFBv1S7m6dGye22/jauu6XoQZTp34oTYc1a21HEmuTg0d669bedgQCem4MvWAEX5NBhwN/a6EbBXgN6tba53PBrn3eWnN/Ltg191uP9TwX8GM9PMYoh8e2F8BzKuTwXB45PIdsATx3UQ7PmV0A6I4XwW7Hzwgsgp9Nea2ciO/nSfhZvAXwM6By+NnjBfAz7wvgtRaWBQaRh5MkusgoOW4NrT9gxHlNI15LaxG8htsCeO3AJfF5zcqFW8BrpQrhNXqXwGtDL9oaXpN8yTa9uxa+u+/Tu9e9Fn4Hv4NhGfzuj+W4mV9JsdvNvKPT3iI8vvxGO0G80J0cupNDd3LoTg7dyaE7OXQnh+7k0J0cupNDd3LoTg7dyaE7OXQnh+7k0J0cupNDd3LoTg7dyaE7OXQnh+7k0J0cupNDd3LoTg7dyaE7OXQnh+7k0J2ct99qJ4iXn3baCeKF7uTQnRy6k0N3Ir5+8fzLv4Z/37SzRMfvdiPftKNEx+8nd1+1o0THz6O6P2gniZCh0X7/oh0kQsZG+4t2kAgZGu0ftXNESd9o/6QdI0p+zyYrpmu0f9ZOESeOTVbOr2yyYt52u79oZ4gV32j/qp0hWn7d/awdIVre/k07Qby4f9dOoIB9xqWf5qN/wdv5bLVlvQfuSyHOEq6FP/NCTk8hNehfrzXh0L6DIXzxdCRXKKvgvvvD5ZF8C0Nt8L5eOJJv/yigvrtipI7h4uSuMY3TDnECvI7kIxnqN5XCDWAfwJ0O+IlT7rRDXAK5W0kM9NcKFlhfEPWONfI3MuBNio9pgb8wCjlbAPi9hW4THbB9Cnhf3AE6lsHPATow51C4fckRiHP3GNY8AcA1I2hHcgK4WkUkNZ4OsBpZNLXFDqzuJZ6adgBqimwhB/7zAH0v8zamY3hYiWEXOhewGMtHqN5jNi1ED401as0FYmawxpotzQagpykiKJ6cRn0lBLg6nI12Z7MBrEpEEj6NcpwYcZoVR/UuYyGKlW6AoWohapOEMClWnyItpFI6sod+RHEOSosikCXhQlT6nQSlFLGQ7fPHuziOKM7h6Ucd4yyenObZRW/t9cw9CSUV97yXi31SfMxTjzrCHeJcyBN3hSfv5E/geV1QXEcU5/C0oQ/zVKJlPGnKpTCZfAJPmerHXzw5zROWmGd6hkz2wpcfdqZbtReLblZaknt8aeNM0eajhDJx15/t1MP2P89255Lywq0zeXhJ7VyxsEjev6ydMxZ/fFhm9j+fcVcm73f87cFbIHb36N7ohiJ1JpvHNNfdfcTexd1jp8jnD47UNun+cdu0Cm06sY2pbDndWpZ11a7Lkw+z3a1V0f3ue+zpYWfcJbYO/2xXSdrWPk5pc5PZ8a6du3r41drhEVmaTC9pq/r0Rjz00NX5g3Jdx5WZdBMubJAXw3UqkunWtAm/fxhluof56WIzXEwiO3rYpf7O/1N1T1mHxmD2g2R369iPmrAX+2VQd8/wZEX/87nNeNxRxwsrl8Gd3+nDHpf6PskbmUaL/obs4yp4cNc0NqkaPwgVvj9Npodddue7j23t9zg/Umz8s5eHtx65sybflvWma4+V2SQuac8txx92qP5SdzC6S7qsm3cbPpyX78WUJx7mLbju56rrUPe3XnEX9Gy7x2bv+7tDdy5rwjuedPdsunfftfbMiPqgU0QuDkODu2bVb88Hd3n4X/lhfjO4a/uNbm5zFzbfdfe56G5gvOeVdetDjjpePulqcNftl8kJd+2wKfbEw4blsQ0Pu8Fdvr/PFXd+qPB09wx9Y2YvTeMeUVK5fLLf4M6ec9dvyuaMu0TiLpvrLu0GoqFDqbvhKDu/KQ8oqVxZ7l1zVw2b8lx3xfCUocEU47OVdXuxU7v/FHmhu25ccx9kHLvL7uiu6yTW4dnS/mnWB89mL7WhBywvbm+z24Nbu5F0e26cPXK3zy13t+57w01IUvVvXBb6saTqB4LmfJ/2iDLorLHiwF1u2mnO5XM3trSH87uuhX505ydY6an5XXK017x3V5l8WuN2N/gRPS23WTO02a3zE0EfyIWnL1cuHQaaUzyk/D5njnLgLjmY6/sm9H5d0U8Cu0dsDtx1c94T64rkYJf96K5s9j1Yf0O/QKmHd7H7OQQa1iAX9DzozKhLc+NxPRt+LvtV5Nra/ZrM73XZ0dwgybN3D+uWqStn9+vZ/U+rst33g8N6tj64z9ba+vBW/05XWVoM69m6zWzRBfJ/X7d5tj7bKB92+rR4dz5V4mxuK3G3zUM26R0PPH1aulQ+4W5729vgnnOM5IFnIEtP0D3hLrE3PVFpn3EI8KGnTwtP0BUezXg2Dz49QDYMfSytI/LwI4BaJ+g+nsefPv1KJ94d84TTp3lsewE8p2IBPJdnATyHbMEr8dxFOTxnNpYXezhP3hX4GYEFr/dCU+SnD338TNQC+Fm8BfAzoAvgZ4+XvW4MdblLqJXU4i+pKF6QKfYpsurVrHltmQXwmkZyeC2tBfAabgvgtQMXoL7ri4C4ZmWkJRWMa6Vi7P03ArMYh7nScoyJeU3yBcR11BGrh8YYteYCNjPgd38sC6Q9S58J4MFlsIZwFsgVOFQHfB7E79iK5Kgj6Elc/E7BBfC7LBeAftQRa1IcT7YA9HsL3CZW8H0KbF+8imAsA50DrKKYQ0HOPQPgfXEAcs2zimTNCLjWXmF3xMcxsWo8q4hqZHjNI57aLN4UOaJjAlDHUlaRHYvaGjBQjijOwWrLOgaqFVwluQv/sdvd5XniGCfuy0877QTxQndy6E4O3cmhOzl0J4fu5NCdHLqTQ3dy6E4O3cmhOzl0J4fu5NCdHLqTQ3dy6E4O3cmhOzl0J4fu5NCdHLqTQ3dy6E7O33Zv2hFi5ctv/9NpZ4iW33zRThAvdCeH7uTQnRy6k0N3cuhODt3JoTs5dCeH7kT89MXzX/8d/v2qnSU23nYTTjtLbLhJ3Q/tKPHxY1D3/Zt2kviYGi27u5sZG+3ftYPESN9o/8EmK+DtO5uslL7R/kE7Rpz84Cgrpmu0v2iniJPQaP+oHSJWfKP9m3aGWPn2nU1Wytfdn7UjxMs//6SdIF6+/aKdQIFE+ypGy1C9jk+qvfWLyFX3u41p73NFKAVy3atbOuQLWINn3xrjtB3Emr2K5MqkiNlzvCvNxpK9jOfSpHDZa2O0FUSbvQW/YD9y9iaiS+KCZS9Qv0ogguxr02griDZ7FtWlmLGyw10KP57siXINJ+bsqXINJ+bsmyi+oQQyu3YNJ+bs2jWcmLNr13Bizs76kxjtGk7M2bVrODFn167hxJyd9Scx2jWcmLNr13Bizq5dw4k5O+tPYrRrODFn167hxJyd9Scx2jWcmLNr13Bizq5dw4k5O+tPYrRrODFn167hxJxdu4YTc3bWn8Ro13Bizq5dw4k5u3YNJ+bsrD+J0a7hxJxdu4YTc3bWn8Ro13Bizn7vGk5xfnmZGXunZ3pQ9ltZXsMps2lN6drwGeD2zAZddRcenow/Nv6ZsssT3+jrT3XYyGGDN6Zpc2M27uQ9r7nbhmdKxmcymf+vuSgv9vpT6vez0V1lcrdy/i+nN+mKu9o/bkzj1wt+8mHNxakvbv0psfVqm2b2SrxsUyTjczR9170+M3O44s7myWq0sennvJc7NNz6kzVZ1V3CYD9zt3umv23danQ3/t+dWaAfuDv1TIlbje7K8RmaSwMpbv3Jhis/1LY5EHFwTYjDe+7dDV13frotHbg780yju2lPvrir4tafvLsw8SwPOuSDq0KccmfH/SA7vVEHIs48003ugOtPdtiO7GrLOOHu5BbPmN8Nr1mPPealhwDXn+zQT6cK7mbtd8D1JzsZuTaajVtaj+42V/u783nmuwOuP9n3e9OMsaI5MnDB3fWxwnW/5+f9INefTvR32Z5T7saZRXJmVnbg7swzTdabaa5y1g9y/cm7W/f3ubbwOWhhGy+v2JzpiOa32bBCKbqV8vkFK3L9KczvqnKbX54JOD/LWPstTpKiWwY06/C4/bMejtJX3IUJi3+/umlLuJicDSvlszM46PqT7+eyrkO6vMFTvxUc1ebdSuQWd0dd4PBM53ct6PqTd+fWbVZdfnfLaW3VCUtsltnD/bTO9+7qy2vj42Va4Z8pvfDa0PUne5fVYvmoMhF0/ek+7tYPWjfh1p8C93FX31Rmv1f2x3O5hnMfdzrZH8/lGk6ZIJ/hg1t/gkc7u3YNJ+bs2jWcmLPz/Ccx2jWcmLNr13Bizs7zn8Ro13Bizq5dw4k5u3YNJ+bs/PydGO0aTszZtWs4MWfXruHEnJ2fvxOjXcOJObt2DSfm7No1nJizs/4kRruGE3N27RpOzNlZfxKjXcOJObt2DSfm7No1nJizs/4kRruGE3N27RpOzNm1azgxZ2f9SYx2DSfm7No1nJiza9dwYs7O+pMY7RpOzNm1azgxZ2f9SYx2DSfm7No1nJiza9dwYs7O+pMY7RpOzNm1azgxZ9eu4cScnfUnMdo1nJiza9dwYs6uXcOJOTvrT2ISEzXK9aeY0a0/FclT2e3u+nTRzhAk7LQDRAzdyaE7OXQnh+7k0J0cupNDd3LoTg7dyaE7OXQnh+7k0J0cupNDd3LoTg7dyaE7OXQnh+7k0J0cupNDd3LoTg7dyaE7OXQnh+7k0J0cupNDd3LoTg7dyaE7OXQnh+7k0J0cupNDd3LoTg7dyaE7OXQnh+7k0J0cupNDd3LoTg7dyaE7OXQnh+7k0J0cupNDd3LoTg7dyaE7OXQnh+7k0J0cupNDd3LoTg7dyaE7OXQnh+7k0J0cupNDd3LoTg7dyaE7OXQnh+7k0J0cupNDdyJ++uLZhX++fNXOEhtvuwmnnSU23KTuh3aU+PgxqPv+TTtJfEyNlt3dzYyN9u/aQWKkb7T/YJMV8PadTVZK32j/oB0jTn5wlBXTNdpftFPESWi0f9QOESu+0f5NO0OsfPvOJivl6+7P2hHi5Z9/0k4QL99+0U7wPLS/FPo62obo7jHutBPEmw85G3o+5Gzo+ZCzoedDzoaeDzkbej7kbOj5kLOh50POhp4PORt6PuRs6PmQs6HnQ86Gng85G3o+5Gzo+ZCzoedDzoaeDzkbej7kbOj5kLOh50POhp4PORt6PuRs6PmQs6HnQ86Gng85G3o+5Gzo+ZCzoedDzoaeDzkbej7kbOj5kLOh50POhp4PORt6PuRs6PmQs6HnQ86Gng85G3o+5Gzo+ZCzoedDzoaeDzkbej7kbOj5kLOh50POhp4PORt6PuRs6PkuZrMme3iA5LIdunv/ogdPS3c3vijdycirIsu2bTv8+tLuElv3v9iy21bbptvh9traqi4vPn9ty3JdVevpXkXeXwZg8xncjTufMYn/d9jyYK8cfk7Guyd2YvpbZmwT7tQU07MWmTHWTQ/6NO6sabau3nR/Sk2euKQ1uZvuPmH37oypEv/vvvUXzabZTL99HndtE6wUxpRhF+wac2vHXapMJqYmmnV3Xa37/wXcxiTWpJ/P3fSo9WpVHTbEc2R9x1bsH+3aauXyacf8RO4Sm3m6Rln65pjZK/oy0w6Ptqfv8HncpaEzy3t3q23bDZjJpefPBmfNZ3ZXBndFP2C6cS8q68qr3N/91FhRDa+z/rzu6uDOd/lhfNgeyKn7P3U/ZhPjn8b+rjzsLT+Pu7q/Sxu23vY7WRXcJVW/R+Xn9qgO37zdqrN9Zg790u58A62KMEPz7srQ9Orc5CZzLvd/Xzk/43OX3TW2TM3Z1d1Luwt7madrs6tN/3MYYpPifd922l37fl3xOdwNS9miyvwStl/PbttuWlKH34p1lV+bpPhxtvTTGnt21Vvai+6jdXcHssu7pXo+5Gx0J4fu5NCdnCIpFz3+M7t75XzI2dDzIWdDz4ecDT0fcjb0fMjZ0PMhZ0PPh5wNPR9yNvR8yNnQ8yFnQ8+HnA09H3I29HzI2dDzIWdDz4ecDT0fcjb0fMjZ0PMhZ0PPh5wNPR9yNvR8yNnQ8yFnQ8+HnA09H3I29HzI2dDzIWdDz4ecDT0fcjb0fMjZ0PMhZ0PPh5wNPR9yNvR8yNnQ8yFnQ8+HnA09H3I29HzI2dDzIWdDz4ecDT0fcjb0fMjZ0PMhZ0PPh5wNPR9yNvR8yNnQ8yFnQ8+HnA09H3I29HwGHm1DdBcDu512gnihOjl0J4fu5NCdHLqTQ3dy6E4O3cmhOzl0J4fu5NCdHLqTQ3dy6E4O3cmhOzl0J4fu5NCdHLqTQ3dy6E4O3cmhOzl0J4fu5NCdHLqTQ3dy6E4O3cmhOzl0J4fu5NCdHLqTQ3dy6E4O3cmhOzl0J4fu5NCdHLqTQ3dy6E4O3cmhOzl0J4fu5NCdHLqTQ3dy6E4O3cmhOzl0J4fu5NCdHLqTQ3dy6E4O3cmhOzl0J4fu5NCdHLqTQ3dy6E4O3cmhOzl0J4fu5NCdHLqTQ3dy6E4O3Yn46cvEV+0ssfHzbsJpZ4mOSd2v2kni49fR3Zt2kvh4Y5MV49hk5fzKJivmjU1WjGOTlfODTVbMG5usGMcmK+cHm6yYt93vtCNEi9v9XjtCvPzPz9oJ4uWzq6u1vyb6Gk7b0HkqbTdXyLQFXSA3VYJLY6y2oPMUxiTaGWJNtzaNdoRo07Wm1Y4QbbrGrLUjxJouMabQzhBrOmty7QjRpstMpR0h1nTOmFo7Q6zptsaU2hliTZeajXaEaNNtTKodIdZ0pTFb7QyxpquhKzzY6SroCg92uhy5woOdDrvCg50Ou8KDnQ67woOdDrrCg50Ou8KDnQ67woOdDrrCg50Ou8KDnQ67woOdDrvCg50OusKDnQ67woOdDrvCg50Ou8KDnQ66woOdDrvCg50Ou8KDnQ67woOdDrrCg50Ou8KDnQ67woOdDrrCg50Ou8KDnQ67woOdDrvCg50OusKDnQ67woOdDrvCg50Ou8KDnQ66woOdDrvCg53urhWe5GAqVtxjo1+6/pQ0U4dUb4wxTT+jcG3jf9ksXsS/cP3JpfsPU/sRMQ/GwurTeY2Z/69ZKu+F608b07SjuzzsIsWmm4+tO2vWLF0TvHL9ybTODu6KYSLWhh1v04+OxdK16CvXn7Zh87JhM/v/16F3H0fHfGGTe/H60+isHSZivpl1/w3bvmh29ur1p9HdqMnd0d2r15/euwvtdXKXLptivHr96cR+V07u2mVP/+r1p/fu7tjfvXz9aT/O9s3T91Fho/t+arPI3cvXn/Zzk3z/e97vMG7Z1Pbl60+jO+8pdV5hE6YVqcn9BK/Mlk1tX7r+VCZJUpmN/7cMvky+bf0a1nVPbFKvcdHGv3b9yU4XVwuOsu6nfvk/XEhv0argpetPq8SOhB3E1VXWrofJbGGzLF02Sr5w/elzp8Ou8GCnw67wYKeDrvBgp8Ou8GCnw67wYKfDrvBgp4Ou8GCnw67wYKfDrvBgp8Ou8GCng67wYKfDrvBgp8Ou8GCnw67wYKeDrvBgp8Ou8GCnw67wYKeDrvBgp8Ou8GCnw67wYKfDrvBgp4Ou8GCnw67wYKfDrvBgp8Ou8GCng67wYKfDrvBgp8Ou8GCnw67wYKeDrvBgp8Ou8GCnw67wYKeDrvBgp8Ou8GCnw67wYKfDrvBgp4Ou8GCnw67wYKfDrvBgp8Ou8GCng67wYKfDrvBgp8Ou8GCnw67wYKeDrvBgp8Ou8GCnw67wYKeDrvBgp8Ou8GCnw67wYKfDrvBgp4Ou8GCnw67wYKerDThO29B5Km03V0CuPxXJY9n977LHA4+yD2enHSBi6E4O3cmhOzl0J4fu5NCdHLqTQ3dy6E4O3cmhOzl0J4fu5NCdHLqTQ3dy6E4O3cmhOzl0J4fu5NCdHLqTQ3dy6E4O3cmhOzl0J4fu5NCdHLqTQ3dy6E4O3cmhOzl0J4fu5NCdHLqTQ3dy6E4O3cmhOzl0J4fu5NCdHLqTQ3dy6E4O3cmhOzl0J4fu5NCdHLqTQ3dy6E4O3cmhOzl0J4fu5NCdHLqTQ3dy6E4O3cmhOzl0J4fu5NCdHLqTQ3dy6E4O3cmhOzl0J4fu5NCdHLoT8fZl4qt2ltj4thv5i3aU6Pg6ufurdpT4+L/R3c/aSeLj2/de3e+0g0TI2Gh/rx0kRn6wyYp5+84mK8Wxycr5wSYrJjRaNlkZjk1Wzg82WTFvbLJiHJusnP9hkxVDdRNua6vsYV8QvclsXWhv4mPYppsnfMN2065f7Yuii6qZ9o1HfTm336f7F8lqp72996POO2/p9uHbVKzb4K9JX2Tn68zl9llb4+o2vFPVC9hLgrkseeprltbvfI3V3vSFuOr55rrXDfby57/uHUn0tqB711JtAXKsj6/XckJvsYm013N+GpxrTlbDrtdEOVt2fircOt0Mte8zam0Rt1NsNNvrlCJGeS7HCB3eQoQcN+BgIuMkiTCwbwFRDRh+gFtrZ5jwfV7jtEPMZuuXk9oZDij80kY7w1zKxmy0MxyxRhjy55HBdTCtMWCJzlAjdXY9romj1ULmrHHG/UtYyPaRxTDW+t0OsfJT4HUkH/G7HWTdpzK5doRr+N0OaWq3p8Tv8WrQ3S70eFiTzo9sTKsd4QxbyDHsAN8yttoZzpFDDmJ7UtNoR7iQDXu02MwaKVySCJtPkiROmq3AbrRuTpPtj9sPxx6Tg/NwbDfD2d/x8BydbuPT7nyTg4PW2X7wzK4v9xvoKZ7vj91VdX7rMxtOu0lvc+fCYfK0CkcOh/2nNPvq0gx3Lew4FkhnzAPyYXPbbp9JDmV9cGff3dZNf/bVwdRk05Rohrs1cGccNuDqUDZNFVybbW9y14y/2qx/FT8P37bjK85wV8DOPQP59R4lOa4p3+AuNxt39FS1HzjrcV+a4c4/IfAZKnPCVUeLoxvc+bse9wibsM81w7PNcZcDl4+TOY2i7M9sLaaH2JGP7rLxprLXE/4yDeR9E6yG7nOOuzn3UXQ35179+bOb7sTg5HgsPTfOdrtzmXbnjzZVv3P31sZObI6XFLAqe5s7z9Zmw/Tilv0u6OvPiQ2/uqG1bvrRYo47C+xuO9ddoOr2phv6u5FhtPHzxCyQ96NF7O7sLWUe1030BO580ws7Xr5v0WH/+wTunG3Hzr6rG8x3t63GuWMSbCXT6rTtjMTubk6bzUzTd15ltyib7249HXHIgvR9DX3b7Yaxu5szVpSNyW2yStabbpP9Q/afLuncDT8XwV013VSG/aup6rIIpQQbFrfTNLwrzH0Gd6ttM/RSeb06nqOY/gzlnuy4FmD7U/p6Khf2QrdX0rzEHGXOgnFbhfGxXw6U9gD/DNPP/ubDm7opXZGGB9ogrbb7xUkZ5jC1vb6kQZ4bYy8Ysddkc2oBmkC/tTNqUIpg16Dm1D71wK59zqm564Fdc591rEcN7GM9M48x6gB+jJHHthfAcyoWwHN55PAcMjk8d3EBPGdWDs/VXgA/IyCHn01ZlhOteUC+nyfhZ/Hk8DOgC+BnjxfAz7zL4bUWlgSGkYeTZH5kXltmWWj9wS3KaxrxWlqL4DXclsBrBy6Jz2tWLtwCXitVCK/RuwReG3oJvCb5om06vhb+vScO5eteC7+D38GwCH73xx0o7/zVFZ9AGSGEEEIIIYQQQgghhBBCCCGEEEIIIYQQQgghhBByiv8HchSRx1cghl4AAAAldEVYdGRhdGU6Y3JlYXRlADIwMjUtMDItMjBUMDc6NTg6NDcrMDA6MDC5g92eAAAAJXRFWHRkYXRlOm1vZGlmeQAyMDI1LTAyLTIwVDA3OjU4OjQ3KzAwOjAwyN5lIgAAACh0RVh0ZGF0ZTp0aW1lc3RhbXAAMjAyNS0wMi0yMFQwNzo1ODo0NyswMDowMJ/LRP0AAAAASUVORK5CYII=;" parent="1" vertex="1">
          <mxGeometry x="180" y="240" width="315" height="1140" as="geometry" />
        </mxCell>
      </root>
    </mxGraphModel>
  </diagram>
</mxfile>
